<svg width="29" height="26" viewBox="0 0 29 26" fill="none" xmlns="http://www.w3.org/2000/svg">
<path d="M6.10914 14.0834H19.21L13.4865 19.3701C13.029 19.7926 13.029 20.4859 13.4865 20.9084C13.9439 21.3309 14.6828 21.3309 15.1402 20.9084L22.8694 13.7693C23.3268 13.3468 23.3268 12.6643 22.8694 12.2418L15.1519 5.09176C14.9328 4.8889 14.6353 4.7749 14.3251 4.7749C14.0148 4.7749 13.7173 4.8889 13.4982 5.09176C13.0408 5.51426 13.0408 6.19676 13.4982 6.61926L19.21 11.9168H6.10914C5.46407 11.9168 4.93628 12.4043 4.93628 13.0001C4.93628 13.5959 5.46407 14.0834 6.10914 14.0834Z" fill="#37474F"/>
<mask id="mask0_0_22" style="mask-type:luminance" maskUnits="userSpaceOnUse" x="4" y="4" width="20" height="18">
<path d="M6.10914 14.0834H19.21L13.4865 19.3701C13.029 19.7926 13.029 20.4859 13.4865 20.9084C13.9439 21.3309 14.6828 21.3309 15.1402 20.9084L22.8694 13.7693C23.3268 13.3468 23.3268 12.6643 22.8694 12.2418L15.1519 5.09176C14.9328 4.8889 14.6353 4.7749 14.3251 4.7749C14.0148 4.7749 13.7173 4.8889 13.4982 5.09176C13.0408 5.51426 13.0408 6.19676 13.4982 6.61926L19.21 11.9168H6.10914C5.46407 11.9168 4.93628 12.4043 4.93628 13.0001C4.93628 13.5959 5.46407 14.0834 6.10914 14.0834Z" fill="white"/>
</mask>
<g mask="url(#mask0_0_22)">
</g>
</svg>
